<?xml version="1.0" encoding="utf-8"?>
<!-- Generator: Adobe Illustrator 19.2.1, SVG Export Plug-In . SVG Version: 6.00 Build 0)  -->
<svg version="1.1" id="layer" xmlns="http://www.w3.org/2000/svg" xmlns:xlink="http://www.w3.org/1999/xlink" x="0px" y="0px"
	 viewBox="0 0 652 652" style="enable-background:new 0 0 652 652;" xml:space="preserve">
<style type="text/css">
	.st0{fill:#133444;}
	.st1{fill:#C42370;}
	.st2{fill:#1C4D6B;}
	.st3{fill:#1D4259;}
	.st4{fill:#4B6B9A;}
	.st5{fill:#343535;}
	.st6{fill:#3E5578;}
	.st7{fill:#6DB2D8;}
	.st8{fill:#335F8A;}
	.st9{fill:#529BBA;}
</style>
<g id="Layer_2">
	<g id="Layer_1-2">
		<g id="Layer_2-2">
			<g id="Layer_1-2-2">
				<polygon class="st0" points="22,336.2 26.4,334.3 80.6,310.7 139.2,336.2 117.2,381.7 63.4,389.3 22.9,345.6 				"/>
				<path class="st1" d="M127.1,308.2c-9.7-11.7-23.4-19.2-38.4-21.2l-1-0.1c-4.7-0.6-9.4-0.6-14.1,0l-1,0.1
					c-15,2-28.7,9.6-38.4,21.2l0,0l-2.4,4l-4.1,6.7l-3,4.9l0,0c0,0.1-0.1,0.3-0.2,0.4v0.1l6.5,3.9l41.5,24.6l8,4.7v-58.7l-8,3.6
					v-8.8l8-3.6l8,3.6l40.8,18.6L127.1,308.2z"/>
				<path class="st2" d="M141,350.8c-0.1,19.3-8.8,37.5-23.7,49.7c-5.7,4.7-12.1,8.2-19.1,10.6c-5.7,1.9-11.6,2.8-17.6,2.8
					c-33.4,0-60.5-29.7-60.5-63.1c0-4.9,0.6-9.8,1.8-14.6l58.6,34.7l58.6-34.7C140.4,341,141.1,345.9,141,350.8z"/>
				<polygon points="73.6,286.9 80.6,290 72.6,293.7 72.6,286.4 				"/>
				<polygon points="72.6,302.5 80.6,298.8 80.6,357.6 72.6,352.8 				"/>
				<polygon class="st3" points="80.6,298.8 80.6,357.6 136.8,324.4 				"/>
				<polygon class="st4" points="80.6,231.2 80.6,298.8 136.8,324.4 				"/>
				<path class="st5" d="M80.6,298.8v58.7l-8-4.7l-48.1-28.4h-0.1h0.1c0-0.1,0.1-0.3,0.2-0.4l0,0l7-11.7l40.8-18.5v8.7L80.6,298.8z"
					/>
				<polygon class="st6" points="80.6,298.8 80.6,357.6 72.6,352.8 24.5,324.4 24.5,324.4 24.6,324.3 72.6,302.5 				"/>
				<polygon class="st7" points="80.6,231.2 80.6,298.8 24.5,324.4 				"/>
				<path class="st8" d="M57.9,409.1c0.8,0.4,1.7,0.7,2.5,1C59.6,409.8,58.8,409.4,57.9,409.1z"/>
				<path class="st8" d="M60.4,410.1c0.8,0.3,1.7,0.7,2.6,0.9C62.2,410.8,61.3,410.5,60.4,410.1z"/>
				<path class="st8" d="M65.3,411.7c0.7,0.2,1.3,0.4,2,0.5C66.6,412.1,65.9,411.9,65.3,411.7z"/>
				<path class="st7" d="M22,336.2l58.6,34.7c-0.8,5.3-2.2,10.4-4.2,15.4c-4.7,11.4-14.1,23.4-32.5,14.2l0,0
					c-14.9-12.2-23.6-30.4-23.7-49.7C20.2,345.9,20.8,341,22,336.2z"/>
				<path class="st9" d="M117.3,400.5l-0.2,0.1c-0.3,0.2-0.6,0.5-0.9,0.7l-0.1,0.1c-0.3,0.3-0.7,0.5-1,0.8c-0.4,0.3-0.7,0.6-1.1,0.8
					c-0.4,0.2-0.8,0.5-1.1,0.8c-0.4,0.3-0.7,0.4-1,0.7l-0.2,0.1c-0.4,0.2-0.7,0.4-1,0.7c0,0-0.1,0-0.1,0.1c-0.4,0.2-0.7,0.4-1.1,0.7
					c-0.4,0.2-0.8,0.4-1.2,0.7c-0.4,0.2-0.8,0.4-1.2,0.6h0l-1.2,0.6c-0.4,0.2-0.8,0.4-1.2,0.6c-0.4,0.2-0.8,0.4-1.2,0.6
					c-0.8,0.4-1.7,0.7-2.5,1c-0.8,0.3-1.7,0.6-2.6,0.9c-0.3,0.1-0.7,0.2-1,0.3l-1.2,0.4c-0.7,0.2-1.3,0.4-2,0.5
					c-0.2,0.1-0.5,0.1-0.8,0.2l-0.4,0.1l-1.1,0.2c-0.4,0.1-0.6,0.1-1,0.2c-0.3,0.1-0.6,0.1-0.9,0.2c-0.3,0-0.7,0.1-1,0.2
					c-0.2,0-0.3,0-0.5,0.1l-0.8,0.1h-0.4c-0.3,0-0.6,0.1-0.8,0.1c-0.3,0-0.7,0.1-1,0.1c-0.3,0-0.5,0-0.8,0s-0.5,0-0.7,0l0,0
					c-0.3,0-0.6,0-0.8,0c-0.2,0-0.8,0-1.1,0h-2.4c-0.4,0-0.8,0-1.1,0c-0.3,0-0.6,0-0.8,0l0,0c-0.2,0-0.5,0-0.7,0s-0.5,0-0.8,0
					c-0.3,0-0.7-0.1-1-0.1c-0.3,0-0.6,0-0.8-0.1h-0.4c-0.2,0-0.5-0.1-0.8-0.1c-0.2,0-0.3,0-0.5-0.1c-0.3,0-0.7-0.1-1-0.2
					c-0.3,0-0.6-0.1-0.9-0.2c-0.3,0-0.7-0.1-1-0.2c-0.3-0.1-0.7-0.2-1.1-0.2l-0.4-0.1c-0.3,0-0.6-0.1-0.8-0.1
					c-0.7-0.2-1.4-0.4-2-0.5l-1.2-0.4c-0.4-0.1-0.7-0.2-1-0.3c-0.9-0.3-1.7-0.6-2.6-0.9c-0.9-0.3-1.7-0.7-2.5-1
					c-0.4-0.2-0.8-0.4-1.2-0.6l-1.2-0.6l-1.2-0.6l0,0c-0.4-0.2-0.8-0.4-1.2-0.6c-0.4-0.2-0.8-0.4-1.2-0.7c-0.4-0.2-0.7-0.4-1.1-0.7
					l-0.1-0.1c-0.4-0.2-0.7-0.4-1-0.7l-0.2-0.1c-0.3-0.2-0.7-0.4-1-0.7c-0.3-0.2-0.8-0.5-1.1-0.8c-0.4-0.3-0.8-0.5-1.1-0.8l-1-0.8
					l-0.1-0.1c-0.3-0.2-0.6-0.5-0.9-0.7l-0.2-0.1c18.3,9.1,27.8-2.9,32.5-14.2c2-4.9,3.4-10.1,4.2-15.4c0.8,5.3,2.2,10.4,4.2,15.4
					C89.5,397.6,99,409.6,117.3,400.5z"/>
				<path class="st8" d="M94,412.3c0.7-0.2,1.4-0.4,2-0.5C95.4,411.9,94.7,412.1,94,412.3z"/>
				<path class="st8" d="M98.2,411c0.9-0.3,1.7-0.6,2.6-0.9C100,410.5,99.1,410.8,98.2,411z"/>
				<path class="st8" d="M100.8,410.1c0.8-0.3,1.7-0.7,2.5-1C102.5,409.4,101.7,409.8,100.8,410.1z"/>
				<path class="st4" d="M141,350.8c-0.1,19.3-8.8,37.5-23.7,49.7c-18.3,9.1-27.8-2.9-32.5-14.2c-2-4.9-3.4-10.1-4.2-15.4l58.6-34.7
					C140.4,341,141,345.9,141,350.8z"/>
			</g>
		</g>
		<path class="st7" d="M205.7,412.1h-19.9V279.4h19.9v9.4c7.9-7.9,16.7-11.7,26.6-11.7c11.8,0,21.6,4.3,29.2,13.1
			c7.8,8.7,11.6,19.5,11.6,32.7c0,12.9-3.9,23.6-11.6,32.1c-7.3,8.3-17.8,13-28.9,12.8c-10,0-19.1-4.1-27-12.1V412.1L205.7,412.1z
			 M252.9,322.8c0-8.2-2.3-14.9-6.7-20.1c-4.2-5.1-10.5-8-17.1-7.9c-7.3,0-13.2,2.5-17.7,7.6c-4.5,5.1-6.8,11.7-6.8,20
			c0,8,2.3,14.7,6.8,20c4.5,5.2,10.4,7.7,17.6,7.7c6.5,0.1,12.8-2.7,17-7.8C250.6,337.1,252.9,330.6,252.9,322.8z"/>
		<path class="st7" d="M290.1,321.8c-0.2-12,4.6-23.4,13.3-31.7c8.6-8.6,20.3-13.3,32.4-13.1c12.8,0,23.7,4.4,32.6,13.2
			c8.9,8.8,13.2,19.5,13.2,32.2c0,12.9-4.4,23.7-13.3,32.3c-8.9,8.7-19.9,13-32.9,13c-13,0-23.7-4.4-32.3-13.2
			S290.1,334.9,290.1,321.8z M310.5,322.1c0,8.6,2.3,15.4,6.9,20.4c4.6,5.1,10.9,7.6,18.6,7.6s14-2.5,18.6-7.5c4.6-5,7-11.6,7-20
			s-2.3-15-7-20c-4.6-5.1-10.9-7.6-18.6-7.6s-13.7,2.5-18.4,7.6C312.8,307.6,310.5,314.1,310.5,322.1z"/>
		<path class="st7" d="M402.8,279.4h19.9v7.7c3.6-3.8,6.9-6.4,9.7-7.9c3.2-1.5,6.7-2.2,10.2-2.2c5.2,0,10.7,1.7,16.4,5.1l-9.1,18.2
			c-3.8-2.7-7.4-4.1-11-4.1c-10.8,0-16.3,8.1-16.3,24.5v44.5h-19.9L402.8,279.4L402.8,279.4z"/>
		<path class="st7" d="M490.8,297.9v67.4h-19.9v-67.4h-8.5v-18.5h8.5v-31.5h19.9v31.5h15.4v18.5H490.8z"/>
		<path class="st7" d="M516.7,243.6c0-3.4,1.3-6.7,3.8-9c5.1-5.1,13.3-5.1,18.3,0c2.5,2.4,3.9,5.7,3.8,9.1c0.1,3.5-1.3,6.8-3.8,9.2
			c-2.4,2.5-5.7,3.9-9.1,3.8c-3.5,0.1-6.8-1.3-9.2-3.8C518,250.5,516.6,247.1,516.7,243.6z M539.6,279.4v85.9h-19.9v-85.9H539.6z"/>
		<path class="st7" d="M614.6,294l-16.5,8.8c-2.6-5.3-5.8-7.9-9.6-7.9c-1.7,0-3.4,0.6-4.7,1.8c-1.3,1.2-2,2.9-1.9,4.6
			c0,3.3,3.8,6.6,11.5,9.8c10.6,4.5,17.6,8.7,21.2,12.6c3.6,3.9,5.5,8.9,5.5,15.4c0.2,7.9-3.2,15.6-9.2,20.8
			c-5.9,5.3-13.6,8.1-21.5,7.9c-14.4,0-24.6-7-30.6-21l17-7.9c2.3,4.2,4.2,6.8,5.4,7.9c2.3,2.2,5.5,3.4,8.7,3.3c6.7,0,10-3.1,10-9.2
			c0-3.5-2.6-6.9-7.8-9.8c-2-1-4-2-6-2.9c-2-0.9-4.1-1.9-6.1-2.9c-5.8-2.8-9.8-5.6-12.2-8.5c-3-3.6-4.5-8.2-4.5-13.8
			c0-7.5,2.5-13.6,7.7-18.5c5.1-4.8,12-7.5,19.1-7.3C601.1,277,609.2,282.7,614.6,294z"/>
	</g>
</g>
</svg>
